<svg xmlns="http://www.w3.org/2000/svg" viewBox="0 0 32 32">
  <rect width="32" height="32" rx="6" fill="#FACC15"/>
  <path d="M16 6c-1.5 3-2 5-2 8 0 2 .5 4 2 6 1.5-2 2-4 2-6 0-3-.5-5-2-8z" fill="#1a1a1a"/>
  <path d="M12 16c-1 1-1.5 2.5-1.5 4 1.5 0 3-.5 4-1.5" fill="none" stroke="#1a1a1a" stroke-width="1.5" stroke-linecap="round"/>
  <path d="M20 16c1 1 1.5 2.5 1.5 4-1.5 0-3-.5-4-1.5" fill="none" stroke="#1a1a1a" stroke-width="1.5" stroke-linecap="round"/>
  <circle cx="16" cy="12" r="1.5" fill="#FACC15"/>
  <path d="M14 22l2 4 2-4" fill="none" stroke="#1a1a1a" stroke-width="1.5" stroke-linecap="round" stroke-linejoin="round"/>
</svg>